<?xml version="1.0" standalone="no"?>
<!DOCTYPE svg PUBLIC "-//W3C//DTD SVG 20010904//EN"
 "http://www.w3.org/TR/2001/REC-SVG-20010904/DTD/svg10.dtd">
<svg version="1.0" xmlns="http://www.w3.org/2000/svg"
 width="720.000000pt" height="720.000000pt" viewBox="0 0 720.000000 720.000000"
 preserveAspectRatio="xMidYMid meet">
<metadata>
Created by potrace 1.14, written by Peter Selinger 2001-2017
</metadata>
<g transform="translate(0.000000,720.000000) scale(0.100000,-0.100000)"
fill="#000000" stroke="none">
<path d="M4885 7185 c-47 -18 -95 -69 -95 -103 0 -19 3 -22 13 -14 29 24 185
-9 214 -46 28 -35 62 -110 78 -173 21 -77 16 -204 -10 -263 -41 -95 -158 -230
-267 -306 -54 -37 -52 -38 -188 16 -95 37 -234 78 -300 89 -19 3 -42 8 -50 10
-37 10 -176 32 -270 42 -153 16 -609 9 -760 -12 -19 -3 -55 -7 -80 -11 -66 -8
-79 -10 -145 -23 -33 -6 -73 -14 -90 -16 -16 -3 -91 -21 -165 -40 -423 -107
-818 -303 -1162 -577 -146 -116 -449 -422 -517 -522 -8 -12 -18 -23 -22 -26
-4 -3 -43 -56 -88 -118 -215 -301 -379 -650 -480 -1022 -28 -104 -70 -310 -77
-384 -3 -33 -8 -63 -9 -66 -10 -17 -20 -213 -20 -405 0 -202 6 -303 22 -410 3
-22 7 -51 8 -65 9 -83 80 -384 122 -513 63 -196 164 -419 291 -637 185 -321
409 -586 717 -850 16 -14 78 -61 137 -105 352 -263 789 -464 1208 -556 52 -11
104 -22 115 -24 124 -22 155 -27 185 -30 19 -1 69 -6 110 -11 146 -16 614 -9
705 11 11 3 41 7 66 9 47 5 175 30 239 46 19 5 46 11 60 13 14 3 52 13 85 23
33 10 62 18 65 19 23 4 209 70 255 90 17 7 64 27 105 45 243 102 587 314 810
499 56 46 274 261 321 316 103 121 283 383 370 540 151 270 291 625 344 875 2
8 8 35 14 60 10 46 14 67 25 130 13 75 16 97 22 155 3 33 8 71 11 85 9 43 11
491 3 570 -20 186 -26 231 -56 380 -45 228 -216 725 -294 855 -9 17 -32 57
-50 90 -117 213 -338 505 -517 682 -29 29 -53 54 -53 56 0 3 21 35 46 73 54
79 91 157 128 265 34 102 41 152 41 289 0 103 -3 122 -29 185 -15 38 -44 91
-63 117 -36 50 -133 138 -150 138 -6 0 -16 7 -24 16 -34 41 -101 56 -261 57
-75 0 -98 4 -98 14 0 19 1 16 -21 94 -39 140 -98 226 -227 330 -61 49 -219 72
-297 44z m-1461 -2544 c-5 -26 -3 -30 22 -35 88 -19 103 -21 249 -31 55 -4
118 -9 140 -11 22 -1 82 -6 132 -9 51 -4 105 -11 120 -16 20 -6 10 -7 -36 -3
-35 2 -104 7 -155 10 -50 2 -113 7 -141 9 -27 3 -81 7 -120 10 -123 10 -210
26 -222 42 -9 11 -9 21 -1 39 15 32 19 30 12 -5z m391 5 c11 -2 58 -11 105
-20 215 -40 266 -55 294 -83 35 -35 33 -53 -1 -21 -39 35 -71 45 -253 82 -155
31 -213 38 -325 39 -63 0 -87 2 -65 7 35 6 208 4 245 -4z m-1007 -41 c-9 -9
-42 -13 -173 -20 -269 -14 -437 -29 -457 -41 -4 -3 -8 0 -8 5 0 6 9 12 20 12
11 1 23 2 28 3 4 1 41 6 82 10 41 4 88 9 103 11 15 2 96 6 180 10 84 4 153 8
154 9 6 5 77 6 71 1z m-844 -71 c14 -30 21 -35 41 -32 13 3 22 1 19 -3 -3 -5
-18 -9 -34 -9 -21 0 -30 6 -36 23 -3 12 -13 30 -22 40 -13 15 -13 17 0 17 8 0
22 -16 32 -36z m-160 -15 c40 -67 118 -123 222 -159 59 -21 82 -26 162 -34 73
-8 62 -19 -13 -13 -137 11 -296 81 -352 154 -16 20 -38 47 -50 60 -19 20 -20
23 -5 23 10 0 26 -14 36 -31z m306 11 c-30 -10 -56 -17 -59 -15 -7 7 68 32 99
33 8 0 -10 -8 -40 -18z m-475 -50 c-14 -22 56 -135 142 -229 12 -14 32 -52 44
-85 12 -34 28 -74 35 -91 23 -54 233 -651 294 -835 4 -14 20 -56 35 -95 93
-244 165 -477 180 -590 3 -22 8 -46 10 -53 3 -7 8 -61 11 -120 6 -96 9 -111
35 -146 57 -78 148 -119 363 -162 80 -16 307 -21 459 -11 90 6 276 39 298 52
5 4 9 2 9 -3 0 -11 -183 -51 -276 -60 -143 -13 -401 -7 -524 14 -61 11 -166
41 -216 63 -108 48 -153 105 -159 203 -8 132 -17 195 -50 348 -2 8 -15 53 -29
100 -23 78 -41 131 -127 365 -17 44 -41 114 -55 155 -14 41 -29 84 -34 95 -4
11 -31 88 -59 170 -77 226 -190 539 -217 602 -8 17 -14 36 -14 41 0 6 -4 12
-8 14 -17 7 -128 155 -146 195 -17 37 -17 73 -1 73 4 0 4 -4 0 -10z m2730
-170 c-3 -5 -12 -10 -18 -10 -7 0 -6 4 3 10 19 12 23 12 15 0z m-65 -30 c-24
-15 -36 -11 -14 4 10 8 21 12 24 10 2 -3 -2 -9 -10 -14z m-2140 -45 c94 -19
96 -19 195 -34 109 -16 148 -20 273 -28 222 -14 968 -6 1152 13 30 3 40 1 30
-5 -51 -31 -1193 -36 -1372 -6 -13 2 -61 9 -108 15 -47 6 -105 16 -130 22 -25
5 -56 12 -69 14 -32 6 -91 31 -91 39 0 3 8 2 18 -3 9 -5 55 -17 102 -27z
m2100 31 c0 -2 -7 -7 -16 -10 -8 -3 -12 -2 -9 4 6 10 25 14 25 6z m-2164 -160
c38 -13 93 -20 239 -32 72 -5 93 -7 180 -19 56 -8 135 -39 135 -54 0 -5 -17
-1 -37 9 -58 27 -135 40 -333 55 -104 8 -148 15 -185 31 -18 7 -35 11 -38 8
-3 -3 -8 -1 -12 5 -8 15 5 14 51 -3z m2239 -107 l-14 -44 6 40 c6 42 12 59 19
52 2 -2 -3 -23 -11 -48z m-2215 -30 c25 -6 56 -13 70 -15 14 -3 41 -9 61 -14
19 -6 68 -12 109 -15 89 -6 105 -15 25 -15 -58 0 -297 45 -325 61 -13 7 -13 8
0 8 8 0 35 -4 60 -10z m2193 -76 c-8 -32 -19 -65 -25 -73 -8 -13 -9 -13 -4 0
2 8 10 41 17 73 7 31 16 57 20 57 4 0 0 -26 -8 -57z m-1757 6 c9 -11 14 -22
11 -26 -4 -4 -13 1 -20 11 -7 10 -32 20 -57 24 -42 6 -43 6 -15 12 39 8 60 2
81 -21z m2076 -36 c14 -15 32 -41 40 -58 17 -34 24 -135 10 -135 -5 0 -8 12
-7 28 2 45 -15 97 -45 132 -27 32 -33 34 -89 34 -50 -1 -69 -6 -113 -33 -49
-30 -51 -31 -29 -7 36 38 93 62 153 65 47 2 57 -1 80 -26z m-2442 -53 c0 -4
-23 -5 -51 -2 -36 3 -54 1 -59 -8 -7 -11 -12 -11 -26 1 -16 13 -14 14 17 19
43 6 119 0 119 -10z m105 -4 c22 -3 76 -8 120 -11 155 -11 182 -16 201 -36 21
-23 12 -25 -20 -3 -16 10 -56 17 -115 19 -50 3 -104 7 -119 9 -15 3 -57 8 -94
11 -38 4 -68 11 -68 16 0 5 12 7 28 4 15 -2 45 -6 67 -9z m-825 -117 c102 -1
196 -5 210 -9 21 -5 -214 -5 -740 1 -38 1 -55 4 -42 7 13 4 105 6 205 5 100
-1 265 -3 367 -4z m2803 -28 c-41 -37 -83 -58 -83 -41 0 4 13 13 30 20 16 7
42 23 57 36 45 39 42 26 -4 -15z m-2103 20 c40 -11 115 -19 245 -27 50 -3 101
-7 114 -9 13 -3 45 -7 70 -11 52 -7 90 -23 56 -23 -11 0 -38 4 -60 8 -22 5
-76 12 -120 15 -68 6 -117 10 -230 21 -64 6 -126 18 -131 26 -7 11 11 11 56 0z
m2513 -41 c-3 -11 -7 -20 -9 -20 -2 0 -4 9 -4 20 0 11 4 20 9 20 5 0 7 -9 4
-20z m-2289 -125 c124 -8 266 -31 280 -45 13 -13 15 -13 -69 4 -69 14 -120 20
-280 31 -100 7 -158 15 -165 22 -3 3 38 2 90 -2 52 -4 117 -9 144 -10z m2120
-49 c-17 -28 -83 -81 -90 -73 -2 2 12 17 33 33 21 15 44 36 51 46 20 27 25 22
6 -6z m-2199 -91 c116 -10 157 -14 230 -20 83 -7 105 -13 105 -26 0 -6 -4 -8
-8 -5 -13 8 -58 14 -147 21 -108 8 -186 15 -210 20 -11 2 -32 4 -47 4 -16 1
-28 6 -28 12 0 6 8 8 18 5 9 -2 49 -8 87 -11z m-89 -52 c-7 -7 -26 7 -26 19 0
6 6 6 15 -2 9 -7 13 -15 11 -17z m2145 -30 c-50 -44 -221 -157 -221 -146 0 5
44 36 98 70 53 34 108 73 121 87 14 14 29 26 35 26 6 0 -9 -17 -33 -37z
m-2697 -18 c103 -3 192 -8 197 -11 5 -3 9 -11 9 -19 0 -10 -24 -12 -117 -8
-161 8 -749 8 -850 1 -76 -5 -81 -4 -80 13 1 14 9 19 32 20 76 2 270 10 271
12 4 3 336 -1 538 -8z m716 -39 c25 -3 77 -8 115 -11 140 -12 150 -14 167 -35
9 -11 21 -20 27 -20 5 0 12 -4 15 -9 10 -16 -38 1 -56 19 -17 18 -51 25 -193
36 -138 10 -195 20 -195 34 0 4 17 4 38 0 20 -5 57 -11 82 -14z m0 -151 c25
-3 59 -9 75 -12 17 -3 77 -7 135 -7 102 -2 150 -14 150 -38 0 -6 -11 -3 -26 7
-20 13 -49 17 -130 17 -57 0 -130 6 -162 13 -32 6 -65 11 -74 9 -9 -1 -19 5
-22 13 -3 7 -2 12 2 9 4 -2 28 -7 52 -11z m150 -170 c41 -3 127 -7 190 -10
148 -8 140 -7 140 -17 0 -5 -12 -7 -27 -4 -16 4 -95 8 -178 11 -176 5 -245 13
-245 27 0 6 10 8 23 4 12 -4 56 -9 97 -11z m343 -163 c16 -4 -65 -6 -180 -4
-114 3 -217 8 -228 12 -26 10 371 2 408 -8z m-223 -127 c47 -3 110 -8 140 -12
30 -3 63 -5 73 -5 9 1 17 -4 17 -9 0 -6 -19 -7 -47 -4 -50 6 -71 8 -236 20
-53 4 -100 11 -103 16 -3 5 11 7 33 5 21 -3 76 -8 123 -11z m1155 -155 c-3 -5
-12 -10 -18 -10 -7 0 -6 4 3 10 19 12 23 12 15 0z m-35 -10 c0 -5 -5 -10 -11
-10 -5 0 -7 5 -4 10 3 6 8 10 11 10 2 0 4 -4 4 -10z m-835 -20 c-3 -5 -11 -10
-16 -10 -6 0 -7 5 -4 10 3 6 11 10 16 10 6 0 7 -4 4 -10z m-380 -85 c156 -48
381 -72 679 -74 49 -1 86 -4 82 -8 -11 -11 -354 -2 -466 12 -19 3 -53 7 -75
10 -85 10 -123 17 -195 37 -41 12 -79 25 -84 30 -14 12 2 10 59 -7z m1050
-225 c-3 -5 -14 -10 -23 -9 -14 0 -13 2 3 9 27 11 27 11 20 0z"/>
</g>
</svg>
